@startuml
skinparam shadowing false
skinparam monochrome false
skinparam TitleFontSize 20
skinparam sequenceTitleFontSize 20
skinparam sequenceTitleFontStyle plain

skinparam state {
  BackgroundColor white
  BackgroundColor<<Warning>> lightblue
}

!define __ ➝
!define O •
!define DECS DECS
!define T TERME
!define F FACTEUR
state Final : S __ PROG O

state E0 : S __ O PROG
state E0 : PROG __ O DECS INSTRS
state E0 : DECS __ O DECS var IDS pv
state E0 : DECS __ O DECS const AFFECTS pv
state E0 : DECS __ O

state E1 : PROG __ DECS O INSTRS
state E1 : DECS __ DECS O var IDS pv
state E1 : DECS __ DECS O const AFFECTS pv
state E1 : INSTRS __ O INSTRS lire id pv
state E1 : INSTRS __ O INSTRS ecrire EXP pv
state E1 : INSTRS __ O INSTRS id opaff pv
state E1 : INSTRS __ O


state E2 : PROG __ DECS INSTRS O
state E2 : INSTRS __ INSTRS O lire id pv
state E2 : INSTRS __ INSTRS O ecrire EXP pv
state E2 : INSTRS __ INSTRS O id opaff EXP pv

state E3 : DECS __ DECS const O AFFECTS pv
state E3 : AFFECTS __ O AFFECTS v id eg num
state E3 : AFFECTS __ O id eg num

state E4 : DECS __ DECS var O IDS pv
state E4 : IDS __ O IDS v id
state E4 : IDS __ O id


state E5 : INSTRS __ INSTRS lire O id pv

state E6 : INSTRS __ INSTRS ecrire O EXP pv
state E6 : EXP __ O EXP add T
state E6 : EXP __ O EXP sous T
state E6 : EXP __ O T
state E6 : T __ O T mult F
state E6 : T __ O T div F
state E6 : T __ O F
state E6 : F __ O id
state E6 : F __ O num
state E6 : F __ O parouv EXP parfer


state E7 : INSTRS __ INSTRS id O opaff EXP pv

state E8 : DECS __ DECS const AFFECTS O pv
state E8 : AFFECTS __ AFFECTS O v id eg num

state E9 : AFFECTS __ id O eg num

state E10 : IDS __ id O

state E11 : DECS __ DECS var IDS O pv
state E11 : IDS __ IDS O v id

state E12 : DECS __ DECS var IDS pv O

state E13 : IDS __ IDS v O id

state E14 : IDS __ IDS v id O

state E15 : INSTRS __ INSTRS lire id O pv

state E16 : INSTRS __ INSTRS ecire EXP O pv
state E16 : EXP __ EXP O add T
state E16 : EXP __ EXP O sous T

state E17 : EXP __ T O
state E17 : T __ T O mult F
state E17 : T __ T O div F

state E18 : INSTRS __ INSTRS id opaff O EXP pv
state E18 : EXP __ O EXP add T
state E18 : EXP __ O EXP sous T
state E18 : EXP __ O T
state E18 : T __ O T mult F
state E18 : T __ O T div F
state E18 : T __ O F
state E18 : F __ O id
state E18 : F __ O num
state E18 : F __ O parouv EXP parfer

state E19 :  DECS __ DECS const AFFECTS pv O

state E20 : AFFECTS __ AFFECTS v O id eg num

state E21 : AFFECTS __ id eg O num

state E22 : INSTRS __ INSTRS lire id pv O

state E23 : EXP __ EXP add O T
state E23 : T __ O T mult F
state E23 : T __ O T div F
state E23 : T __ O F
state E23 : F __ O id
state E23 : F __ O num
state E23 : F __ O parouv EXP parfer

state E24 : EXP __ EXP sous O T
state E24 : T __ O T mult F
state E24 : T __ O T div F
state E24 : T __ O F
state E24 : F __ O id
state E24 : F __ O num
state E24 : F __ O parouv EXP parfer

state E25 : INSTRS __ INSTRS id aff EXP O pv
state E25 : EXP __ EXP O add T
state E25 : EXP __ EXP O sous T

state E27 : AFFECTS __ AFFECTS v id O eg num

state E28 : AFFECTS __ id eg num O

state E29 : EXP __ EXP add T O
state E29 : T __ T O mult F
state E29 : T __ T O div F

state E30 : T __ F O

state E31 : F __ id O

state E32 : F __ num O


state E33 : F __ parouv O EXP parfer
state E33 : EXP __ O EXP add T
state E33 : EXP __ O EXP sous T
state E33 : EXP __ O T
state E33 : T __ O T mult F
state E33 : T __ O T div F
state E33 : T __ O F
state E33 : F __ O id
state E33 : F __ O num
state E33 : F __ O parouv EXP parfer

state E34 : EXP __ EXP sous T O
state E34 : T __ T O mult F
state E34 : T __ T O div F

state E35 : INSTRS __ INSTRS id opaff EXP pv O

state E36 : AFFECTS __ AFFECTS v id  eg O num

state E37 : T __ T mult O F
state E37 : F __ O id
state E37 : F __ O num
state E37 : F __ O parouv EXP parfer

state E38 : T __ T div O F
state E38 : F __ O id
state E38 : F __ O num
state E38 : F __ O parouv EXP parfer

state E39 : F __ parouv EXP O parfer
state E39 : EXP __ EXP O add T
state E39 : EXP __ EXP O sous T

state E40 : AFFECTS __ AFFECTS v id eg num O

state E41 : T __ T mult F O

state E42 : T __ T div F O

state E43 : F __ parouv EXP parfer O

state E44 : INSTRS __ INSTRS ecrire EXP pv O


[*] -> E0
E0 --> E1 : DECS
E0 --> Final : PROG

E1 --> E2 : INSTRS
E1 --> E3 : const
E1 --> E4 : var

E2 --> E5 : lire
E2 --> E6 : ecrire
E2 --> E7 : id

E3 --> E8 : AFFECTS
E3 --> E9 : id

E4 --> E10 : id
E4 --> E11 : IDS

E5 --> E15 : id

E6 --> E16 : EXP
E6 --> E17 : T
E6 --> E30 : F
E6 --> E31 : id
E6 --> E32 : num
E6 --> E33 : parouv

E7 --> E18  : opaff

E8 --> E19 : pv
E8 --> E20 : v

E9 --> E21 : eg

E11 --> E12 : pv
E11 --> E13 : v

E13 --> E14 : id

E15 --> E22 : pv

E16 --> E23 : add
E16 --> E24 : sous
E16 --> E44 : pv

E17 --> E37 : mult
E17 --> E38 : div

E18 --> E17 : T
E18 --> E25 : EXP
E18 --> E30 : F
E18 --> E31 : id
E18 --> E32 : num
E18 --> E33 : parouv

E20 --> E27 : id

E21 --> E28 : num

E23 --> E29 : T
E23 --> E30 : F
E23 --> E31 : id
E23 --> E32 : num
E23 --> E33 : parouv

E24 --> E30 : F
E24 --> E31 : id
E24 --> E32 : num
E24 --> E33 : parouv
E24 --> E34 : T

E25 --> E23 : add
E25 --> E24 : sous
E25 --> E35 : pv

E27 --> E36 : eg

E29 --> E37 : mult
E29 --> E38 : div

E33 --> E33 : parouv
E33 --> E39 : EXP
E33 --> E30 : F
E33 --> E31 : id
E33 --> E32 : num
E33 --> E17 : T


E34 --> E37 : mult
E34 --> E38 : div

E36 --> E40 : num

E37 --> E31 : id
E37 --> E32 : num
E37 --> E33 : parouv
E37 --> E41 : F

E38 --> E31 : id
E38 --> E32 : num
E38 --> E33 : parouv
E38 --> E42 : F

E39 --> E23 : add
E39 --> E24 : sous
E39 --> E43 : parfer

Final --> [*] : $

state E29 <<Warning>>
state E34 <<warning>>
state E0 <<warning>>
state E1 <<warning>>
state E2 <<warning>>
state E17 <<warning>>

@enduml
